<?xml version="1.0" encoding="UTF-8"?>
<svg version="1.1" xmlns="http://www.w3.org/2000/svg" width="256" height="256">
<path d="M0 0 C0.71285156 -0.02384766 1.42570312 -0.04769531 2.16015625 -0.07226562 C13.58025397 -0.04194678 23.73281937 6.79908346 33.25 12.4375 C34.95736321 13.43594434 36.66473372 14.43437643 38.37252808 15.43208313 C40.12984786 16.45986656 41.88532671 17.49074139 43.640625 18.52197266 C48.08262076 21.12793319 52.54687888 23.69496238 57.01147461 26.26196289 C60.2411736 28.11992241 63.46656216 29.98519163 66.69140625 31.8515625 C71.04179348 34.36724139 75.40503473 36.85857398 79.77734375 39.3359375 C81.91413423 40.55716617 84.05085563 41.77851572 86.1875 43 C87.1563916 43.54277588 88.1252832 44.08555176 89.12353516 44.64477539 C98.05398103 49.776613 105.72885122 55.22853353 110.125 64.75 C110.681875 65.91917969 111.23875 67.08835937 111.8125 68.29296875 C114.1940134 74.22548874 114.27814329 79.65882696 114.28613281 85.9675293 C114.29109772 86.90804642 114.29606262 87.84856354 114.30117798 88.81758118 C114.31576225 91.92396787 114.32259601 95.03030347 114.328125 98.13671875 C114.33388028 100.3028005 114.33963796 102.46888225 114.34539795 104.63496399 C114.35589784 109.17681108 114.36174688 113.71864053 114.36523438 118.26049805 C114.37071169 124.06290413 114.39472787 129.86507468 114.42320633 135.66740704 C114.44188839 140.14313932 114.44704131 144.61881554 114.44857025 149.09458351 C114.4515856 151.23267718 114.45957611 153.37077013 114.47275543 155.5088253 C114.4899296 158.50956172 114.48790778 161.50973158 114.48144531 164.51049805 C114.4906601 165.38306244 114.49987488 166.25562683 114.5093689 167.15463257 C114.45555195 175.18595989 112.60160427 182.81778057 108.4375 189.75 C108.00050781 190.50667969 107.56351563 191.26335937 107.11328125 192.04296875 C101.21880069 199.51239893 93.45060868 203.98415537 85.25 208.5625 C83.51331793 209.54799816 81.77664386 210.53351075 80.04046631 211.51989746 C78.250208 212.53556426 76.4577933 213.54734023 74.66503906 214.55859375 C69.12859461 217.68639168 63.62933487 220.87866933 58.125 224.0625 C55.97920752 225.29824802 53.83337397 226.53392474 51.6875 227.76953125 C47.73029082 230.05148214 43.78076809 232.34568284 39.84057617 234.65682983 C38.07595107 235.69133312 36.30971361 236.72302799 34.54296875 237.75390625 C32.33399831 239.04394499 30.12804279 240.33916641 27.92578125 241.640625 C18.93386395 246.87919398 10.84120751 251.28604698 0.25 251.125 C-0.46285156 251.14884766 -1.17570312 251.17269531 -1.91015625 251.19726562 C-13.33025397 251.16694678 -23.48281937 244.32591654 -33 238.6875 C-34.70736321 237.68905566 -36.41473372 236.69062357 -38.12252808 235.69291687 C-39.87984786 234.66513344 -41.63532671 233.63425861 -43.390625 232.60302734 C-47.83262076 229.99706681 -52.29687888 227.43003762 -56.76147461 224.86303711 C-59.9911736 223.00507759 -63.21656216 221.13980837 -66.44140625 219.2734375 C-70.79179348 216.75775861 -75.15503473 214.26642602 -79.52734375 211.7890625 C-81.66413423 210.56783383 -83.80085563 209.34648428 -85.9375 208.125 C-86.9063916 207.58222412 -87.8752832 207.03944824 -88.87353516 206.48022461 C-97.80398103 201.348387 -105.47885122 195.89646647 -109.875 186.375 C-110.431875 185.20582031 -110.98875 184.03664062 -111.5625 182.83203125 C-113.9440134 176.89951126 -114.02814329 171.46617304 -114.03613281 165.1574707 C-114.04109772 164.21695358 -114.04606262 163.27643646 -114.05117798 162.30741882 C-114.06576225 159.20103213 -114.07259601 156.09469653 -114.078125 152.98828125 C-114.08388028 150.8221995 -114.08963796 148.65611775 -114.09539795 146.49003601 C-114.10589784 141.94818892 -114.11174688 137.40635947 -114.11523438 132.86450195 C-114.12071169 127.06209587 -114.14472787 121.25992532 -114.17320633 115.45759296 C-114.19188839 110.98186068 -114.19704131 106.50618446 -114.19857025 102.03041649 C-114.2015856 99.89232282 -114.20957611 97.75422987 -114.22275543 95.6161747 C-114.2399296 92.61543828 -114.23790778 89.61526842 -114.23144531 86.61450195 C-114.2406601 85.74193756 -114.24987488 84.86937317 -114.2593689 83.97036743 C-114.20555195 75.93904011 -112.35160427 68.30721943 -108.1875 61.375 C-107.75050781 60.61832031 -107.31351563 59.86164062 -106.86328125 59.08203125 C-100.96880069 51.61260107 -93.20060868 47.14084463 -85 42.5625 C-83.26331793 41.57700184 -81.52664386 40.59148925 -79.79046631 39.60510254 C-78.000208 38.58943574 -76.2077933 37.57765977 -74.41503906 36.56640625 C-68.87859461 33.43860832 -63.37933487 30.24633067 -57.875 27.0625 C-55.72920752 25.82675198 -53.58337397 24.59107526 -51.4375 23.35546875 C-47.48029082 21.07351786 -43.53076809 18.77931716 -39.59057617 16.46817017 C-37.82595107 15.43366688 -36.05971361 14.40197201 -34.29296875 13.37109375 C-32.08399831 12.08105501 -29.87804279 10.78583359 -27.67578125 9.484375 C-18.68386395 4.24580602 -10.59120751 -0.16104698 0 0 Z " fill="#5451FC" transform="translate(127.875,2.4375)"/>
<path d="M0 0 C0.71285156 -0.02384766 1.42570312 -0.04769531 2.16015625 -0.07226562 C13.58025397 -0.04194678 23.73281937 6.79908346 33.25 12.4375 C34.95736321 13.43594434 36.66473372 14.43437643 38.37252808 15.43208313 C40.12984786 16.45986656 41.88532671 17.49074139 43.640625 18.52197266 C48.08262076 21.12793319 52.54687888 23.69496238 57.01147461 26.26196289 C60.2411736 28.11992241 63.46656216 29.98519163 66.69140625 31.8515625 C71.04179348 34.36724139 75.40503473 36.85857398 79.77734375 39.3359375 C81.91413423 40.55716617 84.05085563 41.77851572 86.1875 43 C87.1563916 43.54277588 88.1252832 44.08555176 89.12353516 44.64477539 C98.05398103 49.776613 105.72885122 55.22853353 110.125 64.75 C110.681875 65.91917969 111.23875 67.08835937 111.8125 68.29296875 C114.1940134 74.22548874 114.27814329 79.65882696 114.28613281 85.9675293 C114.29109772 86.90804642 114.29606262 87.84856354 114.30117798 88.81758118 C114.31576225 91.92396787 114.32259601 95.03030347 114.328125 98.13671875 C114.33388028 100.3028005 114.33963796 102.46888225 114.34539795 104.63496399 C114.35589784 109.17681108 114.36174688 113.71864053 114.36523438 118.26049805 C114.37071169 124.06290413 114.39472787 129.86507468 114.42320633 135.66740704 C114.44188839 140.14313932 114.44704131 144.61881554 114.44857025 149.09458351 C114.4515856 151.23267718 114.45957611 153.37077013 114.47275543 155.5088253 C114.4899296 158.50956172 114.48790778 161.50973158 114.48144531 164.51049805 C114.4906601 165.38306244 114.49987488 166.25562683 114.5093689 167.15463257 C114.45555195 175.18595989 112.60160427 182.81778057 108.4375 189.75 C108.00050781 190.50667969 107.56351563 191.26335937 107.11328125 192.04296875 C101.21880069 199.51239893 93.45060868 203.98415537 85.25 208.5625 C83.51331793 209.54799816 81.77664386 210.53351075 80.04046631 211.51989746 C78.250208 212.53556426 76.4577933 213.54734023 74.66503906 214.55859375 C69.12859461 217.68639168 63.62933487 220.87866933 58.125 224.0625 C55.97920752 225.29824802 53.83337397 226.53392474 51.6875 227.76953125 C47.73029082 230.05148214 43.78076809 232.34568284 39.84057617 234.65682983 C38.07595107 235.69133312 36.30971361 236.72302799 34.54296875 237.75390625 C32.33399831 239.04394499 30.12804279 240.33916641 27.92578125 241.640625 C18.93386395 246.87919398 10.84120751 251.28604698 0.25 251.125 C-0.46285156 251.14884766 -1.17570312 251.17269531 -1.91015625 251.19726562 C-13.33025397 251.16694678 -23.48281937 244.32591654 -33 238.6875 C-34.70736321 237.68905566 -36.41473372 236.69062357 -38.12252808 235.69291687 C-39.87984786 234.66513344 -41.63532671 233.63425861 -43.390625 232.60302734 C-47.83262076 229.99706681 -52.29687888 227.43003762 -56.76147461 224.86303711 C-59.9911736 223.00507759 -63.21656216 221.13980837 -66.44140625 219.2734375 C-70.79179348 216.75775861 -75.15503473 214.26642602 -79.52734375 211.7890625 C-81.66413423 210.56783383 -83.80085563 209.34648428 -85.9375 208.125 C-86.9063916 207.58222412 -87.8752832 207.03944824 -88.87353516 206.48022461 C-97.80398103 201.348387 -105.47885122 195.89646647 -109.875 186.375 C-110.431875 185.20582031 -110.98875 184.03664062 -111.5625 182.83203125 C-113.9440134 176.89951126 -114.02814329 171.46617304 -114.03613281 165.1574707 C-114.04109772 164.21695358 -114.04606262 163.27643646 -114.05117798 162.30741882 C-114.06576225 159.20103213 -114.07259601 156.09469653 -114.078125 152.98828125 C-114.08388028 150.8221995 -114.08963796 148.65611775 -114.09539795 146.49003601 C-114.10589784 141.94818892 -114.11174688 137.40635947 -114.11523438 132.86450195 C-114.12071169 127.06209587 -114.14472787 121.25992532 -114.17320633 115.45759296 C-114.19188839 110.98186068 -114.19704131 106.50618446 -114.19857025 102.03041649 C-114.2015856 99.89232282 -114.20957611 97.75422987 -114.22275543 95.6161747 C-114.2399296 92.61543828 -114.23790778 89.61526842 -114.23144531 86.61450195 C-114.2406601 85.74193756 -114.24987488 84.86937317 -114.2593689 83.97036743 C-114.20555195 75.93904011 -112.35160427 68.30721943 -108.1875 61.375 C-107.75050781 60.61832031 -107.31351563 59.86164062 -106.86328125 59.08203125 C-100.96880069 51.61260107 -93.20060868 47.14084463 -85 42.5625 C-83.26331793 41.57700184 -81.52664386 40.59148925 -79.79046631 39.60510254 C-78.000208 38.58943574 -76.2077933 37.57765977 -74.41503906 36.56640625 C-68.87859461 33.43860832 -63.37933487 30.24633067 -57.875 27.0625 C-55.72920752 25.82675198 -53.58337397 24.59107526 -51.4375 23.35546875 C-47.48029082 21.07351786 -43.53076809 18.77931716 -39.59057617 16.46817017 C-37.82595107 15.43366688 -36.05971361 14.40197201 -34.29296875 13.37109375 C-32.08399831 12.08105501 -29.87804279 10.78583359 -27.67578125 9.484375 C-18.68386395 4.24580602 -10.59120751 -0.16104698 0 0 Z M-23.375 40.375 C-24.36822266 40.94250977 -25.36144531 41.51001953 -26.38476562 42.09472656 C-29.55292041 43.90921521 -32.71488388 45.73405064 -35.875 47.5625 C-36.92042969 48.16690918 -37.96585938 48.77131836 -39.04296875 49.39404297 C-45.11078247 52.90753324 -51.16295568 56.44663788 -57.20605469 60.00244141 C-59.63022468 61.41942332 -62.06550746 62.8138145 -64.5078125 64.19921875 C-70.96050212 67.89158691 -76.70648432 71.23421648 -80.875 77.5625 C-81.91793213 79.10309082 -81.91793213 79.10309082 -82.98193359 80.67480469 C-86.33101362 87.54136846 -85.49057916 95.73308806 -85.4765625 103.203125 C-85.48434996 104.9341472 -85.49302206 106.66516561 -85.50253296 108.3961792 C-85.51741362 112.01733809 -85.51690866 115.63810691 -85.50634766 119.25927734 C-85.49478384 123.8702975 -85.52857433 128.47970414 -85.575037 133.09045792 C-85.60469573 136.66476575 -85.6062302 140.2386936 -85.60001755 143.81310272 C-85.60103547 145.51136206 -85.61134941 147.2096451 -85.63164139 148.90778351 C-85.74895115 160.09993836 -84.94969789 169.5083523 -77.26644897 178.43040466 C-72.04729998 183.51639232 -64.93925895 186.73336844 -58.625 190.25 C-57.36573558 190.95887303 -56.10695078 191.66859869 -54.84863281 192.37915039 C-52.3472032 193.79126139 -49.84409928 195.20032944 -47.33984375 196.60742188 C-42.74555002 199.1998052 -38.1827855 201.84414212 -33.625 204.5 C-27.73908797 207.91312865 -21.84958862 211.31988025 -15.9375 214.6875 C-15.28040039 215.06640381 -14.62330078 215.44530762 -13.94628906 215.83569336 C-7.48887637 219.49335884 -2.22721206 220.2482248 5.125 219.5625 C12.3508525 217.42512881 18.71081774 213.64919341 25.0625 209.6875 C31.02903385 206.00491952 37.03292049 202.47758373 43.20385742 199.14746094 C48.61423731 196.21188332 53.96461328 193.17252038 59.3125 190.125 C60.43591797 189.49529297 61.55933594 188.86558594 62.71679688 188.21679688 C72.70820697 182.50825781 81.02243167 177.23391762 84.65814209 165.90057373 C85.30390227 162.66653853 85.26903681 159.55660225 85.28613281 156.25878906 C85.29109772 155.52978394 85.29606262 154.80077881 85.30117798 154.04968262 C85.31575918 151.64248706 85.32259549 149.23535744 85.328125 146.828125 C85.33388058 145.14906819 85.33963826 143.47001139 85.34539795 141.79095459 C85.355897 138.27046402 85.36174657 134.74999621 85.36523438 131.22949219 C85.37071122 126.73279873 85.39472645 122.23640926 85.42320633 117.73981094 C85.44189247 114.27039735 85.44704152 110.80105603 85.44857025 107.33159637 C85.45158476 105.67470389 85.45957242 104.01781232 85.47275543 102.36096954 C85.48993866 100.03501221 85.48790606 97.70978527 85.48144531 95.38378906 C85.49526749 94.37037445 85.49526749 94.37037445 85.5093689 93.33648682 C85.43584211 84.82493014 81.913109 77.67074777 76.125 71.5625 C70.68731958 67.04271862 64.2050706 63.86442951 58.04541016 60.44165039 C51.68542254 56.90518427 45.40379044 53.2408145 39.125 49.5625 C28.58486997 43.39881954 28.58486997 43.39881954 18 37.3125 C17.06994141 36.77496094 17.06994141 36.77496094 16.12109375 36.2265625 C10.98958455 33.32365975 6.19792741 31.2792521 0.25 31.25 C-0.92175781 31.22486328 -0.92175781 31.22486328 -2.1171875 31.19921875 C-9.94744831 32.2306837 -16.65338276 36.49607636 -23.375 40.375 Z " fill="#4557EC" transform="translate(127.875,2.4375)"/>
<path d="M0 0 C2.11926529 1.25479569 4.23906739 2.50868514 6.359375 3.76171875 C7.94588867 4.70217041 7.94588867 4.70217041 9.56445312 5.66162109 C14.26478536 8.4284677 19.00669641 11.12024818 23.75 13.8125 C26.2773476 15.25741029 28.80343538 16.70449679 31.32910156 18.15234375 C32.86771909 19.03155377 34.40863981 19.90674897 35.95214844 20.77734375 C46.04894221 26.47927691 54.44951666 31.60312547 58.25065613 43.22128296 C58.86387515 46.42002909 58.84005002 49.51537528 58.86450195 52.77197266 C58.87107315 53.4977652 58.87764435 54.22355774 58.88441467 54.97134399 C58.90409285 57.36891801 58.91580029 59.76642943 58.92578125 62.1640625 C58.92985678 62.98638744 58.9339323 63.80871239 58.93813133 64.65595627 C58.95897243 69.01168311 58.97328053 73.36737866 58.98266602 77.72314453 C58.99370416 82.20179735 59.02807937 86.67994974 59.06783772 91.15842628 C59.09410271 94.61934269 59.10236675 98.08014185 59.10594749 101.54114914 C59.11079086 103.19082377 59.12233999 104.84049397 59.14098549 106.49007034 C59.26378352 118.07769228 58.58135676 128.5632678 50.234375 137.4453125 C44.7268198 141.88852421 38.27648324 144.94316422 32.04101562 148.23535156 C28.48991391 150.14351618 25.02608841 152.1884103 21.5625 154.25 C20.17321405 155.0703751 18.78388963 155.89068506 17.39453125 156.7109375 C14.84995735 158.21689846 12.30751329 159.72630207 9.76708984 161.23925781 C6.59850844 163.12429438 3.42451132 164.99997063 0.25 166.875 C-0.74467285 167.47022461 -1.7393457 168.06544922 -2.76416016 168.67871094 C-20.56592869 179.16505126 -20.56592869 179.16505126 -31.3125 177.5 C-38.82832519 175.19260806 -45.48741795 171.27606336 -52.1875 167.25 C-54.28953442 166.00380697 -56.39243731 164.75907798 -58.49609375 163.515625 C-59.59679199 162.86400391 -60.69749023 162.21238281 -61.83154297 161.54101562 C-65.46260183 159.40317119 -69.12077154 157.31445151 -72.78515625 155.234375 C-73.40853882 154.8802655 -74.03192139 154.52615601 -74.67419434 154.16131592 C-77.12698036 152.76904554 -79.58030433 151.3777747 -82.0368042 149.99206543 C-107.57551127 135.58039581 -107.57551127 135.58039581 -111.3125 122.5 C-111.92354097 116.57568398 -111.92524439 110.67763705 -111.9140625 104.7265625 C-111.92185127 102.99457392 -111.93052363 101.26258912 -111.94003296 99.53060913 C-111.95490027 95.91123031 -111.95441715 92.29224185 -111.94384766 88.67285156 C-111.93226659 84.06064246 -111.96612272 79.45004195 -112.012537 74.83809853 C-112.04216521 71.26383301 -112.04373461 67.68994811 -112.03751755 64.11558151 C-112.03853637 62.41649567 -112.04886759 60.71738636 -112.06914139 59.01842117 C-112.18490223 47.96211986 -111.46428351 39.29857482 -103.65888977 30.67253113 C-98.76188828 25.96264923 -92.37533732 22.86282756 -86.5 19.5625 C-84.77558175 18.58074139 -83.05117017 17.59897085 -81.32714844 16.61651611 C-79.53532701 15.59667273 -77.74170496 14.58005669 -75.94775391 13.56396484 C-70.01046589 10.19759296 -64.10010195 6.78446898 -58.1875 3.375 C-57.11653076 2.76019775 -56.04556152 2.14539551 -54.94213867 1.51196289 C-49.88403853 -1.39920566 -44.87117736 -4.34296149 -39.97460938 -7.51977539 C-26.01738626 -15.75101082 -12.10910266 -7.26586022 0 0 Z M-38.75 9.875 C-39.9265918 10.55719604 -39.9265918 10.55719604 -41.12695312 11.25317383 C-43.53210673 12.65255788 -45.92281242 14.07440529 -48.3125 15.5 C-49.65674164 16.28914257 -51.00175359 17.07697494 -52.34765625 17.86328125 C-54.34425502 19.03104732 -56.33798875 20.20269676 -58.32470703 21.38720703 C-62.2701927 23.73672516 -66.24063432 26.03088266 -70.25149536 28.26741028 C-72.62313769 29.59069541 -74.98890331 30.92432839 -77.35473633 32.25796509 C-79.09100555 33.23094991 -80.83548216 34.18924229 -82.58007812 35.1472168 C-84.18979492 36.05661011 -84.18979492 36.05661011 -85.83203125 36.984375 C-86.79214111 37.51772461 -87.75225098 38.05107422 -88.74145508 38.60058594 C-91.89960574 40.93373684 -93.39213194 43.07054432 -95.3125 46.5 C-95.91230131 50.04392516 -95.91230131 50.04392516 -95.83007812 53.87890625 C-95.8370874 54.59190887 -95.84409668 55.3049115 -95.85131836 56.03952026 C-95.86882884 58.38091747 -95.85730157 60.72109193 -95.84375 63.0625 C-95.84644694 64.69865143 -95.85033105 66.3348013 -95.85534668 67.97094727 C-95.86123228 71.39387324 -95.85270944 74.81638064 -95.83398438 78.23925781 C-95.81119496 82.6174705 -95.82432314 86.99470229 -95.84827423 91.37287903 C-95.86275787 94.74962701 -95.85811456 98.12614407 -95.84776306 101.50289917 C-95.84510284 103.11677162 -95.84834067 104.73066533 -95.85768127 106.34451294 C-95.86788981 108.60393465 -95.85228856 110.86178826 -95.83007812 113.12109375 C-95.82689575 114.4042749 -95.82371338 115.68745605 -95.82043457 117.00952148 C-95.08365142 122.07262589 -92.95604712 125.26808327 -88.88427734 128.32006836 C-87.9814502 128.82159424 -87.07862305 129.32312012 -86.1484375 129.83984375 C-85.12097412 130.42072754 -84.09351074 131.00161133 -83.03491211 131.60009766 C-81.93026611 132.20644043 -80.82562012 132.8127832 -79.6875 133.4375 C-77.94172176 134.4190156 -76.19595631 135.40055481 -74.45097351 136.38348389 C-72.63349362 137.4051273 -70.81276678 138.42080311 -68.99169922 139.43603516 C-63.0386923 142.7641252 -57.14923399 146.20286534 -51.25 149.625 C-48.18510947 151.398713 -45.11925851 153.1698335 -42.04248047 154.92285156 C-40.29525179 155.93225035 -38.56308359 156.96847821 -36.85205078 158.03808594 C-32.8500949 160.47465382 -29.35319678 162.40439222 -24.48828125 162.05175781 C-19.50295003 160.78752436 -15.19711727 157.98096793 -10.8125 155.375 C-9.1893689 154.43732788 -9.1893689 154.43732788 -7.53344727 153.48071289 C-4.11726443 151.50250641 -0.71520602 149.501278 2.6875 147.5 C4.91689017 146.20777283 7.14734008 144.91737201 9.37890625 143.62890625 C17.89077504 138.702534 26.37511258 133.75765847 34.6875 128.5 C32.42536526 126.02509694 30.13495997 124.47504144 27.20703125 122.85546875 C26.30130371 122.34983398 25.39557617 121.84419922 24.46240234 121.32324219 C23.48480957 120.78344727 22.5072168 120.24365234 21.5 119.6875 C14.9613244 116.04573244 8.44444064 112.37976881 2.00390625 108.56640625 C0.92584717 107.92872314 -0.15221191 107.29104004 -1.26293945 106.6340332 C-3.34683976 105.39728333 -5.42752746 104.15510091 -7.50463867 102.90698242 C-8.92933472 102.063573 -8.92933472 102.063573 -10.3828125 101.203125 C-11.21570801 100.70458008 -12.04860352 100.20603516 -12.90673828 99.69238281 C-15.45288274 98.43042122 -17.48041995 97.74525709 -20.3125 97.5 C-21.3025 98.16 -22.2925 98.82 -23.3125 99.5 C-28.94093923 100.59823205 -32.54648848 97.88958904 -37.140625 95.0078125 C-39.3125 93.5 -39.3125 93.5 -41.3125 91.5 C-42.11344025 86.04626942 -42.23236417 80.94252966 -41.3125 75.5 C-38.75064116 72.38167182 -35.98743363 71.03598262 -32.3125 69.5 C-31.3225 68.84 -30.3325 68.18 -29.3125 67.5 C-24.26503169 66.89262829 -21.64415388 68.11992889 -17.5 70.9375 C-16.54480469 71.57558594 -15.58960938 72.21367188 -14.60546875 72.87109375 C-12.3125 74.5 -12.3125 74.5 -11.3125 75.5 C-11.3125 76.716875 -11.3125 77.93375 -11.3125 79.1875 C-10.98620056 81.87895082 -10.74541315 83.10215728 -8.72729492 84.95678711 C-8.02709229 85.3925708 -7.32688965 85.82835449 -6.60546875 86.27734375 C-5.78997559 86.78789307 -4.97448242 87.29844238 -4.13427734 87.82446289 C1.33382711 91.07135689 6.83924733 94.24554585 12.375 97.375 C13.56462907 98.05047148 14.75408294 98.72625159 15.94335938 99.40234375 C17.72206081 100.4134719 19.50121117 101.42374573 21.28219604 102.43084717 C24.40909086 104.19962503 27.52626343 105.98320496 30.63134766 107.79003906 C31.27223831 108.1613797 31.91312897 108.53272034 32.57344055 108.91531372 C33.80497803 109.62961603 35.03455314 110.34731528 36.2618866 111.06881714 C39.2759965 112.92622572 39.2759965 112.92622572 42.6875 113.5 C42.78025026 104.720326 42.85129012 95.94082108 42.89474869 87.16076374 C42.91560852 83.08364346 42.94389619 79.00685878 42.98925781 74.92993164 C43.03277382 70.99417518 43.05664918 67.05874118 43.06700897 63.12276268 C43.07439011 61.62244784 43.08880403 60.12215031 43.11042023 58.62197304 C43.13953262 56.51753469 43.14345302 54.41442233 43.14160156 52.30981445 C43.15048401 51.11290482 43.15936646 49.91599518 43.16851807 48.68281555 C42.58897799 44.84809645 41.37063289 43.24708817 38.6875 40.5 C36.03507806 38.61855931 36.03507806 38.61855931 33.015625 37.00390625 C31.32336792 36.05221558 31.32336792 36.05221558 29.59692383 35.08129883 C28.37715009 34.40830389 27.15734135 33.73537238 25.9375 33.0625 C24.04495413 32.00338695 22.1544882 30.94062036 20.26399231 29.87785339 C18.9769179 29.15478052 17.68914148 28.43295586 16.40068054 27.71235657 C10.0527929 24.15969884 3.77296167 20.49590282 -2.5 16.8125 C-5.26337338 15.19016684 -8.02719192 13.56956389 -10.80224609 11.96728516 C-12.45097871 11.00357352 -14.08502345 10.01419279 -15.70166016 8.99755859 C-24.5447818 3.61388578 -30.11545886 4.66037306 -38.75 9.875 Z " fill="#FBFBFE" transform="translate(154.3125,44.5)"/>
</svg>
